# xmcd CD database file
#
# Track frame offsets:
#	150
#	15217
#	19948
#	54966
#	85452
#	105899
#	131214
#	149568
#	171527
#	189645
#
# Disc length: 2894 seconds
#
# Revision: 3
# Processed by: cddbd v1.4PL0 Copyright (c) Steve Scherf et al.
# Submitted via: CDex 1.50beta10
#
DISCID=840b4c0a
DTITLE=Kai Petite - Kai Petite
DYEAR=2003
DGENRE=Jazz
TTITLE0=Feather Falling
TTITLE1=Eric Talaba
TTITLE2=Quiet Birth
TTITLE3=Quiet Birth
TTITLE4=Set the moon
TTITLE5=Near tome
TTITLE6=Alive
TTITLE7=Untitled
TTITLE8=Elevator music
TTITLE9=Let me
EXTD=YEAR: 2003
EXTT0=
EXTT1=
EXTT2=
EXTT3=
EXTT4=
EXTT5=
EXTT6=
EXTT7=
EXTT8=
EXTT9=
PLAYORDER=
